<?xml version="1.0" encoding="UTF-8"?>
<svg version="1.1" viewBox="0 0 16 16" xml:space="preserve" xmlns="http://www.w3.org/2000/svg"><g transform="matrix(.21386 0 0 .21386 49.016 -203.64)" fill="#2e3436"><g fill="#2e3436"><path d="m-173.38 989.65 18.875 20.742c-2.0743 2.1432-4.9781 3.4575-8.1594 3.4575-3.3875 0-6.3604-1.4522-8.4347-3.7339l-10.44-11.477-8.1589-8.989 8.1589-8.9194 10.44-11.477c2.0744-2.2811 5.0472-3.7339 8.4347-3.7339 3.1813 0 6.0851 1.3138 8.1594 3.3881z"/><path d="m-210.2 989.64-18.875 20.742c2.0743 2.1432 4.9781 3.4575 8.1594 3.4575 3.3875 0 6.3603-1.4522 8.4347-3.7339l10.44-11.477 8.1589-8.989-8.1589-8.9194-10.44-11.477c-2.0744-2.2812-5.0472-3.7339-8.4347-3.7339-3.1813 0-6.0851 1.3138-8.1594 3.3881z"/><path d="m-184.35 999.93-7.4468-8.2044-7.4471 8.2044-17.229 18.933c1.8932 1.8933 4.5443 3.0923 7.4463 3.0923 3.0925 0 5.6804-1.2625 7.6364-3.4079l9.593-10.476 9.5287 10.476c1.8935 2.0819 4.6067 3.4079 7.6988 3.4079 2.9035 0 5.5541-1.199 7.4473-3.0923z"/><path d="m-184.35 979.36-7.4468 8.2044-7.4471-8.2044-17.229-18.933c1.8932-1.8932 4.5443-3.0923 7.4463-3.0923 3.0926 0 5.6804 1.2625 7.6364 3.4079l9.593 10.476 9.5287-10.476c1.8935-2.082 4.6067-3.4079 7.6988-3.4079 2.9035 0 5.5541 1.199 7.4473 3.0923z"/></g></g></svg>
