<?xml version="1.0" encoding="UTF-8"?>
<svg version="1.1" viewBox="0 0 16 16" xml:space="preserve" xmlns="http://www.w3.org/2000/svg"><g transform="matrix(.79013 0 0 .79013 137.71 -248.44)"><g transform="matrix(.20256 0 0 -.20256 -161.12 324.54)"><path d="m0 0 34.769-38.208c-3.821-3.948-9.17-6.369-15.03-6.369-6.24 0-11.716 2.675-15.537 6.878l-19.231 21.141-19.233-21.141c-3.82-4.203-9.425-6.878-15.538-6.878-5.857 0-11.207 2.421-15.028 6.369l34.77 38.208-34.77 38.209c3.821 3.821 9.171 6.241 15.028 6.241 6.241 0 11.464-2.548 15.411-6.878l19.36-21.142 19.231 21.142c3.821 4.202 9.297 6.878 15.537 6.878 5.86 0 11.209-2.42 15.03-6.241z" fill="#2e3436"/></g></g></svg>
