<?xml version="1.0" encoding="UTF-8"?>
<svg height="16px" viewBox="0 0 16 16" width="16px" xmlns="http://www.w3.org/2000/svg">
    <path d="m 2.75 5 h 10.5 c 0.964844 0 1.75 0.785156 1.75 1.75 v 6.5 c 0 0.964843 -0.785156 1.75 -1.75 1.75 h -10.5 c -0.964844 0 -1.75 -0.785157 -1.75 -1.75 v -6.5 c 0 -0.964844 0.785156 -1.75 1.75 -1.75 z m 0 0" fill="none" stroke="#000000" stroke-width="2"/>
    <path d="m 3 0 c 0.550781 0 1 0.449219 1 1 v 4 c 0 0.550781 -0.449219 1 -1 1 s -1 -0.449219 -1 -1 v -4 c 0 -0.550781 0.449219 -1 1 -1 z m 0 0"/>
    <path d="m 13 0 c 0.550781 0 1 0.449219 1 1 v 4 c 0 0.550781 -0.449219 1 -1 1 s -1 -0.449219 -1 -1 v -4 c 0 -0.550781 0.449219 -1 1 -1 z m 0 0"/>
    <path d="m 6 7 v 5 l 1.574219 -0.785156 l 0.8125 1.527344 c 0.132812 0.246093 0.433593 0.335937 0.675781 0.207031 l 0.042969 -0.023438 c 0.242187 -0.128906 0.335937 -0.429687 0.207031 -0.675781 l -0.804688 -1.503906 l 1.492188 -0.746094 z m 0 0"/>
</svg>
