<?xml version="1.0" encoding="UTF-8"?>
<svg height="128px" viewBox="0 0 128 128" width="128px" xmlns="http://www.w3.org/2000/svg" xmlns:xlink="http://www.w3.org/1999/xlink">
    <filter id="a" height="100%" width="100%" x="0%" y="0%">
        <feColorMatrix color-interpolation-filters="sRGB" values="0 0 0 0 1 0 0 0 0 1 0 0 0 0 1 0 0 0 1 0"/>
    </filter>
    <linearGradient id="b" gradientUnits="userSpaceOnUse">
        <stop offset="0"/>
        <stop offset="0.395832" stop-color="#77767b"/>
        <stop offset="1"/>
    </linearGradient>
    <linearGradient id="c" x1="24" x2="30" xlink:href="#b" y1="14" y2="14"/>
    <linearGradient id="d" gradientUnits="userSpaceOnUse">
        <stop offset="0" stop-color="#d9d8da"/>
        <stop offset="1" stop-color="#77767b" stop-opacity="0"/>
    </linearGradient>
    <radialGradient id="e" cx="-419.426575" cy="171.895523" gradientTransform="matrix(-0.00000614 1.872584 -1.763529 -0.00000563 330.140091 791.100052)" r="1.53125" xlink:href="#d"/>
    <linearGradient id="f" x1="97.999992" x2="103.999992" xlink:href="#b" y1="14" y2="14"/>
    <radialGradient id="g" cx="-419.426575" cy="171.895523" gradientTransform="matrix(-0.00000614 1.872584 -1.763529 -0.00000563 404.140083 791.100052)" r="1.53125" xlink:href="#d"/>
    <linearGradient id="h" gradientUnits="userSpaceOnUse" x1="82" x2="82" y1="20" y2="86">
        <stop offset="0" stop-color="#16141a"/>
        <stop offset="1" stop-color="#605484"/>
    </linearGradient>
    <linearGradient id="i" gradientUnits="userSpaceOnUse" x1="7.9999845" x2="119.9999845" y1="115.999962" y2="115.999962">
        <stop offset="0" stop-color="#3d3846"/>
        <stop offset="0.0357143" stop-color="#5e5c64"/>
        <stop offset="0.0713653" stop-color="#241f31"/>
        <stop offset="0.928571" stop-color="#3d3846"/>
        <stop offset="0.964286" stop-color="#5e5c64"/>
        <stop offset="1" stop-color="#241f31"/>
    </linearGradient>
    <linearGradient id="j" gradientUnits="userSpaceOnUse" x1="24" x2="104" y1="48" y2="95.999984">
        <stop offset="0" stop-color="#ff7800"/>
        <stop offset="1" stop-color="#9141ac"/>
    </linearGradient>
    <linearGradient id="k" gradientUnits="userSpaceOnUse" x1="62.43686919305" x2="85.88296222979" y1="62.93224826233" y2="62.07666889333">
        <stop offset="0" stop-color="#787878"/>
        <stop offset="1" stop-color="#787878" stop-opacity="0"/>
    </linearGradient>
    <clipPath id="l">
        <rect height="128" width="128"/>
    </clipPath>
    <clipPath id="m">
        <rect height="128" width="128"/>
    </clipPath>
    <mask id="n">
        <g filter="url(#a)">
            <g clip-path="url(#m)" filter="url(#a)">
                <g clip-path="url(#l)">
                    <path d="m 27 4 c 1.65625 0 3 1.34375 3 3 v 18 c 0 1.65625 -1.34375 3 -3 3 s -3 -1.34375 -3 -3 v -18 c 0 -1.65625 1.34375 -3 3 -3 z m 0 0" fill="url(#c)"/>
                    <path d="m 28.53125 5.765625 c 0 0.679687 -0.6875 1.234375 -1.53125 1.234375 s -1.53125 -0.554688 -1.53125 -1.234375 c 0 -0.683594 0.6875 -1.238281 1.53125 -1.238281 s 1.53125 0.554687 1.53125 1.238281 z m 0 0" fill="url(#e)"/>
                    <path d="m 101 4 c 1.65625 0 3 1.34375 3 3 v 18 c 0 1.65625 -1.34375 3 -3 3 s -3 -1.34375 -3 -3 v -18 c 0 -1.65625 1.34375 -3 3 -3 z m 0 0" fill="url(#f)"/>
                    <path d="m 102.53125 5.765625 c 0 0.679687 -0.6875 1.234375 -1.53125 1.234375 s -1.53125 -0.554688 -1.53125 -1.234375 c 0 -0.683594 0.6875 -1.238281 1.53125 -1.238281 s 1.53125 0.554687 1.53125 1.238281 z m 0 0" fill="url(#g)"/>
                    <path d="m 17.382812 17 h 93.234376 c 8.152343 0 15.609374 6.613281 14.714843 14.71875 l -7 63.402344 c -0.792969 7.179687 -5.8125 13.039062 -13.035156 13.039062 h -82.59375 c -7.222656 0 -12.242187 -5.859375 -13.035156 -13.039062 l -7 -63.402344 c -0.894531 -8.105469 6.5625 -14.71875 14.714843 -14.71875 z m 0 0" fill="#3d3846"/>
                    <path d="m 17.382812 18 h 93.234376 c 8.152343 0 15.609374 6.613281 14.714843 14.71875 l -7 63.402344 c -0.792969 7.179687 -5.8125 13.039062 -13.035156 13.039062 h -82.59375 c -7.222656 0 -12.242187 -5.859375 -13.035156 -13.039062 l -7 -63.402344 c -0.894531 -8.105469 6.5625 -14.71875 14.714843 -14.71875 z m 0 0" fill="url(#h)"/>
                    <path d="m 16 40 h 96 c 4.417969 0 8 3.582031 8 8 v 60 c 0 4.417969 -3.582031 8 -8 8 h -96 c -4.417969 0 -8 -3.582031 -8 -8 v -60 c 0 -4.417969 3.582031 -8 8 -8 z m 0 0" fill="url(#i)"/>
                    <path d="m 16 28 h 96 c 4.417969 0 8 3.582031 8 8 v 68 c 0 4.417969 -3.582031 8 -8 8 h -96 c -4.417969 0 -8 -3.582031 -8 -8 v -68 c 0 -4.417969 3.582031 -8 8 -8 z m 0 0" fill="#5e5c64"/>
                    <path d="m 17 32 h 94 c 2.761719 0 5 2.238281 5 5 v 66 c 0 2.761719 -2.238281 5 -5 5 h -94 c -2.761719 0 -5 -2.238281 -5 -5 v -66 c 0 -2.761719 2.238281 -5 5 -5 z m 0 0" fill="url(#j)"/>
                    <path d="m 17 32 c -2.769531 0 -5 2.230469 -5 5 v 2 c 0 -2.769531 2.230469 -5 5 -5 h 94 c 2.769531 0 5 2.230469 5 5 v -2 c 0 -2.769531 -2.230469 -5 -5 -5 z m 0 0" fill="#3d3846"/>
                    <path d="m 16 28 c -4.433594 0 -8 3.566406 -8 8 v 14 c 0 -2.792969 1.84375 -5.570312 4 -7 c 0.148438 -0.097656 -0.128906 -1.863281 0.027344 -1.953125 c 1.167968 -0.667969 2.523437 -1.046875 3.972656 -1.046875 h 96 c 1.449219 0 2.804688 0.378906 3.972656 1.046875 c 0.109375 0.0625 -0.078125 1.886719 0.027344 1.953125 c 2.226562 1.417969 4 4.152344 4 7 v -14 c 0 -4.433594 -3.566406 -8 -8 -8 z m 0 0" fill-opacity="0.227451"/>
                    <path d="m 48.949219 54.527344 c -0.332031 -0.179688 -0.738281 -0.136719 -1.027344 0.101562 c -0.289063 0.242188 -0.402344 0.636719 -0.285156 0.996094 l 11.636719 34.910156 c 0.097656 0.289063 0.332031 0.515625 0.625 0.597656 c 0.296874 0.082032 0.613281 0.011719 0.847656 -0.1875 l 6.878906 -5.898437 l 4.335938 5.203125 c 0.761718 0.917969 1.898437 1.515625 3.089843 1.621094 c 1.1875 0.109375 2.410157 -0.273438 3.328125 -1.035156 c 0.914063 -0.765626 1.511719 -1.902344 1.617188 -3.089844 c 0.109375 -1.1875 -0.269532 -2.410156 -1.03125 -3.324219 l -4.421875 -5.304687 l 6.566406 -5.628907 c 0.230469 -0.195312 0.347656 -0.492187 0.316406 -0.792969 c -0.03125 -0.300781 -0.210937 -0.566406 -0.476562 -0.710937 z m 0 0" fill-opacity="0.160784"/>
                    <path d="m 48.507812 52.425781 l 11.636719 34.910157 l 7.589844 -6.503907 l 4.933594 5.921875 c 1.285156 1.542969 3.578125 1.75 5.121093 0.464844 c 1.542969 -1.285156 1.75 -3.578125 0.46875 -5.117188 l -5 -6 l 7.25 -6.21875 z m 0 0" fill="#deddda"/>
                    <path d="m 48.507812 52.425781 l 1.929688 5.785157 v -4.734376 z m 2.273438 6.820313 l 9.363281 28.089844 l 7.589844 -6.503907 l 4.933594 5.921875 c 1.285156 1.542969 3.578125 1.75 5.121093 0.464844 c 1.542969 -1.285156 1.753907 -3.578125 0.46875 -5.117188 l -5 -6 l 5.660157 -4.855468 h -4.480469 v -4.675782 l -2.429688 -1.324218 h -9.570312 v -5.222656 l -1.429688 -0.777344 z m 29.65625 10.597656 v 0.101562 l 0.070312 -0.0625 z m 0 0" fill="#241f31"/>
                    <path d="m 48.507812 52.425781 l 11.636719 34.910157 l 7.589844 -6.503907 l 4.933594 5.921875 c 1.285156 1.542969 3.578125 1.75 5.121093 0.464844 c 0.125 -0.105469 0.238282 -0.21875 0.347657 -0.335938 z m 0 0" fill="#241f31"/>
                    <path d="m 68.4375 65.246094 h 6 v 6 h -6 z m 0 0" fill="#60586f"/>
                    <path d="m 74.4375 59.246094 h 6 v 6 h -6 z m -12 -6 h 6 v 6 h -6 z m 0 0" fill="url(#k)"/>
                    <path d="m 62.4375 65.246094 h 6 v 6 h -6 z m 0 0" fill="#3c3746"/>
                    <path d="m 56.4375 59.246094 h 6 v 6 h -6 z m 0 0" fill="#3c3746"/>
                    <path d="m 36.070912 242.181612 l 11.636719 34.910156 l 7.675781 -6.398437 l 4.847657 5.816406 c 1.59375 1.59375 3.804687 1.5625 5.121093 0.464844 c 1.316407 -1.097656 2.113282 -3.472656 0.46875 -5.117188 l -5 -6 l 5.660157 -4.855468" fill="none" stroke="#ffffff" stroke-width="2" transform="matrix(1 0 0 1 12.4369 -189.755831)"/>
                </g>
            </g>
        </g>
    </mask>
    <mask id="o">
        <g filter="url(#a)">
            <rect fill-opacity="0.8" height="184.32" width="184.32" x="-28.16" y="-28.16"/>
        </g>
    </mask>
    <linearGradient id="p" gradientTransform="matrix(0 0.37 -0.98462 0 295.38501 -30.360001)" gradientUnits="userSpaceOnUse" x1="300" x2="428" y1="235" y2="235">
        <stop offset="0" stop-color="#f9f06b"/>
        <stop offset="1" stop-color="#f5c211"/>
    </linearGradient>
    <clipPath id="q">
        <rect height="128" width="128"/>
    </clipPath>
    <clipPath id="r">
        <rect height="128" width="128"/>
    </clipPath>
    <path d="m 27 4 c 1.65625 0 3 1.34375 3 3 v 18 c 0 1.65625 -1.34375 3 -3 3 s -3 -1.34375 -3 -3 v -18 c 0 -1.65625 1.34375 -3 3 -3 z m 0 0" fill="url(#c)"/>
    <path d="m 28.53125 5.765625 c 0 0.679687 -0.6875 1.234375 -1.53125 1.234375 s -1.53125 -0.554688 -1.53125 -1.234375 c 0 -0.683594 0.6875 -1.238281 1.53125 -1.238281 s 1.53125 0.554687 1.53125 1.238281 z m 0 0" fill="url(#e)"/>
    <path d="m 101 4 c 1.65625 0 3 1.34375 3 3 v 18 c 0 1.65625 -1.34375 3 -3 3 s -3 -1.34375 -3 -3 v -18 c 0 -1.65625 1.34375 -3 3 -3 z m 0 0" fill="url(#f)"/>
    <path d="m 102.53125 5.765625 c 0 0.679687 -0.6875 1.234375 -1.53125 1.234375 s -1.53125 -0.554688 -1.53125 -1.234375 c 0 -0.683594 0.6875 -1.238281 1.53125 -1.238281 s 1.53125 0.554687 1.53125 1.238281 z m 0 0" fill="url(#g)"/>
    <path d="m 17.382812 17 h 93.234376 c 8.152343 0 15.609374 6.613281 14.714843 14.71875 l -7 63.402344 c -0.792969 7.179687 -5.8125 13.039062 -13.035156 13.039062 h -82.59375 c -7.222656 0 -12.242187 -5.859375 -13.035156 -13.039062 l -7 -63.402344 c -0.894531 -8.105469 6.5625 -14.71875 14.714843 -14.71875 z m 0 0" fill="#3d3846"/>
    <path d="m 17.382812 18 h 93.234376 c 8.152343 0 15.609374 6.613281 14.714843 14.71875 l -7 63.402344 c -0.792969 7.179687 -5.8125 13.039062 -13.035156 13.039062 h -82.59375 c -7.222656 0 -12.242187 -5.859375 -13.035156 -13.039062 l -7 -63.402344 c -0.894531 -8.105469 6.5625 -14.71875 14.714843 -14.71875 z m 0 0" fill="url(#h)"/>
    <path d="m 16 40 h 96 c 4.417969 0 8 3.582031 8 8 v 60 c 0 4.417969 -3.582031 8 -8 8 h -96 c -4.417969 0 -8 -3.582031 -8 -8 v -60 c 0 -4.417969 3.582031 -8 8 -8 z m 0 0" fill="url(#i)"/>
    <path d="m 16 28 h 96 c 4.417969 0 8 3.582031 8 8 v 68 c 0 4.417969 -3.582031 8 -8 8 h -96 c -4.417969 0 -8 -3.582031 -8 -8 v -68 c 0 -4.417969 3.582031 -8 8 -8 z m 0 0" fill="#5e5c64"/>
    <path d="m 17 32 h 94 c 2.761719 0 5 2.238281 5 5 v 66 c 0 2.761719 -2.238281 5 -5 5 h -94 c -2.761719 0 -5 -2.238281 -5 -5 v -66 c 0 -2.761719 2.238281 -5 5 -5 z m 0 0" fill="url(#j)"/>
    <path d="m 17 32 c -2.769531 0 -5 2.230469 -5 5 v 2 c 0 -2.769531 2.230469 -5 5 -5 h 94 c 2.769531 0 5 2.230469 5 5 v -2 c 0 -2.769531 -2.230469 -5 -5 -5 z m 0 0" fill="#3d3846"/>
    <path d="m 16 28 c -4.433594 0 -8 3.566406 -8 8 v 14 c 0 -2.792969 1.84375 -5.570312 4 -7 c 0.148438 -0.097656 -0.128906 -1.863281 0.027344 -1.953125 c 1.167968 -0.667969 2.523437 -1.046875 3.972656 -1.046875 h 96 c 1.449219 0 2.804688 0.378906 3.972656 1.046875 c 0.109375 0.0625 -0.078125 1.886719 0.027344 1.953125 c 2.226562 1.417969 4 4.152344 4 7 v -14 c 0 -4.433594 -3.566406 -8 -8 -8 z m 0 0" fill-opacity="0.227451"/>
    <path d="m 48.949219 54.527344 c -0.332031 -0.179688 -0.738281 -0.136719 -1.027344 0.101562 c -0.289063 0.242188 -0.402344 0.636719 -0.285156 0.996094 l 11.636719 34.910156 c 0.097656 0.289063 0.332031 0.515625 0.625 0.597656 c 0.296874 0.082032 0.613281 0.011719 0.847656 -0.1875 l 6.878906 -5.898437 l 4.335938 5.203125 c 0.761718 0.917969 1.898437 1.515625 3.089843 1.621094 c 1.1875 0.109375 2.410157 -0.273438 3.328125 -1.035156 c 0.914063 -0.765626 1.511719 -1.902344 1.617188 -3.089844 c 0.109375 -1.1875 -0.269532 -2.410156 -1.03125 -3.324219 l -4.421875 -5.304687 l 6.566406 -5.628907 c 0.230469 -0.195312 0.347656 -0.492187 0.316406 -0.792969 c -0.03125 -0.300781 -0.210937 -0.566406 -0.476562 -0.710937 z m 0 0" fill-opacity="0.160784"/>
    <path d="m 48.507812 52.425781 l 11.636719 34.910157 l 7.589844 -6.503907 l 4.933594 5.921875 c 1.285156 1.542969 3.578125 1.75 5.121093 0.464844 c 1.542969 -1.285156 1.75 -3.578125 0.46875 -5.117188 l -5 -6 l 7.25 -6.21875 z m 0 0" fill="#deddda"/>
    <path d="m 48.507812 52.425781 l 1.929688 5.785157 v -4.734376 z m 2.273438 6.820313 l 9.363281 28.089844 l 7.589844 -6.503907 l 4.933594 5.921875 c 1.285156 1.542969 3.578125 1.75 5.121093 0.464844 c 1.542969 -1.285156 1.753907 -3.578125 0.46875 -5.117188 l -5 -6 l 5.660157 -4.855468 h -4.480469 v -4.675782 l -2.429688 -1.324218 h -9.570312 v -5.222656 l -1.429688 -0.777344 z m 29.65625 10.597656 v 0.101562 l 0.070312 -0.0625 z m 0 0" fill="#241f31"/>
    <path d="m 48.507812 52.425781 l 11.636719 34.910157 l 7.589844 -6.503907 l 4.933594 5.921875 c 1.285156 1.542969 3.578125 1.75 5.121093 0.464844 c 0.125 -0.105469 0.238282 -0.21875 0.347657 -0.335938 z m 0 0" fill="#241f31"/>
    <path d="m 68.4375 65.246094 h 6 v 6 h -6 z m 0 0" fill="#60586f"/>
    <path d="m 74.4375 59.246094 h 6 v 6 h -6 z m -12 -6 h 6 v 6 h -6 z m 0 0" fill="url(#k)"/>
    <path d="m 62.4375 65.246094 h 6 v 6 h -6 z m 0 0" fill="#3c3746"/>
    <path d="m 56.4375 59.246094 h 6 v 6 h -6 z m 0 0" fill="#3c3746"/>
    <path d="m 48.507812 52.425781 l 11.636719 34.910156 l 7.675781 -6.398437 l 4.847657 5.816406 c 1.59375 1.59375 3.804687 1.5625 5.121093 0.464844 c 1.316407 -1.097656 2.113282 -3.472656 0.46875 -5.117188 l -5 -6 l 5.660157 -4.855468" fill="none" stroke="#ffffff" stroke-width="2"/>
    <g mask="url(#n)">
        <g clip-path="url(#r)">
            <g mask="url(#o)">
                <g clip-path="url(#q)">
                    <path d="m 128 80.640625 v 47.359375 h -128 v -47.359375 z m 0 0" fill="url(#p)"/>
                    <path d="m 13.308594 80.640625 l 47.355468 47.359375 h 21.214844 l -47.359375 -47.359375 z m 42.421875 0 l 47.363281 47.359375 h 21.214844 l -47.363282 -47.359375 z m 42.429687 0 l 29.839844 29.839844 v -21.210938 l -8.628906 -8.628906 z m -98.160156 7.90625 v 21.214844 l 18.238281 18.238281 h 21.214844 z m 0 0"/>
                </g>
            </g>
        </g>
    </g>
</svg>
